<svg width="164" height="54" fill="none" xmlns="http://www.w3.org/2000/svg"><path d="M78.472 36.288c-1.104 0-2.104-.176-3-.528a6.233 6.233 0 01-2.28-1.632c-.624-.72-1.104-1.608-1.44-2.664-.336-1.072-.504-2.312-.504-3.72 0-1.408.168-2.656.504-3.744.336-1.104.816-2.024 1.44-2.76.64-.752 1.4-1.32 2.28-1.704.896-.384 1.896-.576 3-.576 1.504 0 2.752.32 3.744.96.992.64 1.784 1.608 2.376 2.904l-2.712 1.44c-.24-.752-.632-1.352-1.176-1.8-.544-.464-1.288-.696-2.232-.696-1.184 0-2.128.4-2.832 1.2-.688.8-1.032 1.92-1.032 3.36v2.64c0 1.456.344 2.576 1.032 3.36.704.768 1.648 1.152 2.832 1.152.944 0 1.712-.256 2.304-.768a4.386 4.386 0 001.32-1.896l2.568 1.512c-.608 1.248-1.416 2.224-2.424 2.928-1.008.688-2.264 1.032-3.768 1.032zM96.39 36c-.671 0-1.207-.192-1.608-.576-.383-.4-.623-.928-.72-1.584h-.144c-.208.816-.632 1.432-1.272 1.848-.64.4-1.431.6-2.376.6-1.28 0-2.263-.336-2.951-1.008-.689-.672-1.032-1.568-1.032-2.688 0-1.296.463-2.256 1.391-2.88.928-.64 2.249-.96 3.96-.96h2.136v-.912c0-.704-.183-1.248-.552-1.632-.367-.384-.96-.576-1.775-.576-.72 0-1.305.16-1.752.48-.432.304-.8.672-1.104 1.104l-1.825-1.632a5.183 5.183 0 011.849-1.728c.767-.448 1.784-.672 3.047-.672 1.697 0 2.984.384 3.864 1.152.88.768 1.32 1.872 1.32 3.312v5.904h1.248V36h-1.703zm-5.088-1.944c.688 0 1.272-.152 1.752-.456.48-.304.72-.752.72-1.344V30.6h-1.968c-1.6 0-2.4.512-2.4 1.536v.408c0 .512.16.896.48 1.152.337.24.809.36 1.416.36zM100.581 36V23.472h3.072v2.592h.12c.08-.336.2-.656.36-.96.176-.32.4-.6.672-.84s.592-.432.96-.576a3.744 3.744 0 011.32-.216h.672v2.904h-.96c-1.04 0-1.824.152-2.352.456-.528.304-.792.8-.792 1.488V36h-3.072zm9.422 0V23.472h3.072v2.592h.12c.08-.336.2-.656.36-.96.176-.32.4-.6.672-.84s.592-.432.96-.576a3.744 3.744 0 011.32-.216h.672v2.904h-.96c-1.04 0-1.824.152-2.352.456-.528.304-.792.8-.792 1.488V36h-3.072zm14.272.288c-.896 0-1.704-.152-2.424-.456a5.138 5.138 0 01-1.824-1.32c-.496-.576-.88-1.264-1.152-2.064-.272-.816-.408-1.728-.408-2.736 0-1.008.136-1.912.408-2.712.272-.8.656-1.48 1.152-2.04a5.138 5.138 0 011.824-1.32c.72-.304 1.528-.456 2.424-.456.896 0 1.704.152 2.424.456a4.87 4.87 0 011.824 1.32c.512.56.904 1.24 1.176 2.04.272.8.408 1.704.408 2.712 0 1.008-.136 1.92-.408 2.736a5.945 5.945 0 01-1.176 2.064 4.87 4.87 0 01-1.824 1.32c-.72.304-1.528.456-2.424.456zm0-2.472c.816 0 1.456-.248 1.92-.744.464-.496.696-1.224.696-2.184V28.56c0-.944-.232-1.664-.696-2.16-.464-.496-1.104-.744-1.92-.744-.8 0-1.432.248-1.896.744-.464.496-.696 1.216-.696 2.16v2.328c0 .96.232 1.688.696 2.184.464.496 1.096.744 1.896.744zM136.649 36c-1.056 0-1.864-.272-2.424-.816-.544-.56-.816-1.352-.816-2.376V25.92h-1.848v-2.448h.96c.464 0 .776-.104.936-.312.176-.224.264-.552.264-.984V20.04h2.76v3.432h2.568v2.448h-2.568v7.632h2.376V36h-2.208zm4.561 0v-2.544h2.208V21.792h-2.208v-2.544h7.608v2.544h-2.232v11.664h2.232V36h-7.608zm17.303-13.944V36h-3.168V22.056h-4.752v-2.808h12.672v2.808h-4.752zm-106.459.93c-.695-.566-1.509-.998-2.39-1.177a4.909 4.909 0 00-1.308-.083c-.475.03-.935.164-1.409.192-1.732.1-3.51-1.53-3.761-3.217-.13-.879.149-1.76.113-2.645-.037-.929-.279-1.858-.745-2.664-.938-1.618-2.839-2.631-4.695-2.592-.883.02-1.816.284-2.604.68-.892.447-1.688 1.092-2.54 1.614-.793.486-1.54.99-2.473 1.13-.765.115-1.522.284-2.287.394-1.717.246-6.057.328-5.22-2.523.183-.622.595-1.235 1.252-1.396.799-.197 1.595.102 2.39.145.87.048 1.982.082 2.691-.5.272-.223.636-.364.938-.578a5.966 5.966 0 001.091-.991c1.157-1.363 1.482-3.36.97-5.062-.53-1.758-2.075-3.141-3.84-3.57-1.735-.423-3.61.116-4.914 1.323-1.139 1.054-1.682 2.699-1.661 4.224.006.448.113.867.14 1.3.026.399-.02.802-.136 1.184a4.205 4.205 0 01-1.43 2.058c-.666.52-1.496.829-2.345.788-.406-.02-.786-.15-1.186-.207a3.97 3.97 0 00-1.412.057c-1.857.397-3.449 1.704-4.071 3.516-.586 1.705-.27 3.618.802 5.064 1.062 1.43 2.913 2.243 4.596 2.047 2.544-.296 2.541-2.69 5.996-3.76 1.63-.505 3.265-.48 4.208-.465 1.097.017 2.038.072 3.231.425 1.148.34 2.025 1.026 3.027 1.644.893.55 1.678 1.248 2.65 1.674.99.433 2 .538 3.067.487 1.052-.05 2.224-.204 2.905.794.627.917.392 2.07-.484 2.74-.773.59-1.992.575-2.916.596-1.098.024-2.217-.005-3.282-.307-.482-.136-.932-.346-1.38-.566-.311-.15-.715-.256-.99-.445-1.598-1.1-3.287-2.509-5.302-2.654-2.137-.153-3.9 1.155-5.547 2.342-.897.647-1.796 1.155-2.878 1.422-1.048.258-2.177.297-3.251.27-2.203-.059-4.278-.874-6.062-2.16-.866-.625-1.712-1.27-2.752-1.575-.93-.272-1.95-.313-2.892-.07-1.943.502-3.569 2.292-3.893 4.28-.337 2.072.661 4.267 2.42 5.39.92.587 1.95.838 3.035.841 1.035.002 2.078-.256 3.106-.026 1.075.24 1.864 1.074 2.076 2.166.184.942.007 1.945.023 2.898.036 2.115.99 4.168 2.966 5.12a5.56 5.56 0 005.549-.426c.186-.128.381-.195.575-.308.19-.11.326-.27.498-.4.185-.142.408-.224.6-.357.23-.161.461-.321.702-.468a10.49 10.49 0 013.192-1.275c1.036-.23 2.16-.193 3.216-.142 1.004.049 2.156.172 2.86.982.265.304.45.621.448 1.024-.002.246.052.572-.005.811-.056.226-1.206 1.314-1.358 1.389-.54.266-1.027.148-1.602.044a8.309 8.309 0 00-1.437-.157c-.214-.001-.383-.044-.596.006a13.97 13.97 0 00-.8.202c-1.107.329-2.065.954-2.767 1.882a5.446 5.446 0 00-.607 5.509c.89 1.943 2.912 3.203 5.045 3.122 2.097-.079 4.1-1.494 4.787-3.5.343-1 .319-2.019.259-3.06-.028-.487-.043-.974.032-1.456.081-.525.368-1.008.681-1.43a3.739 3.739 0 012.624-1.514c.988-.098 1.968.178 2.959.064 2.126-.243 3.898-1.76 4.532-3.799.605-1.944.002-4.163-1.514-5.528-1.456-1.312-3.696-1.801-5.52-1.03-.97.408-1.785 1.093-2.608 1.732-.926.72-1.881 1.304-3.006 1.657-1.009.316-2.116.526-3.175.499-1.024-.026-2.021-.062-3.016-.322-1.068-.28-2.021-.85-2.898-1.508-.787-.59-1.561-1.139-2.42-1.619a5.977 5.977 0 00-3.158-.775c-.941.03-2.055.29-2.91-.232-.824-.503-1.11-1.536-.76-2.42.424-1.075 1.51-1.317 2.546-1.419 1.119-.108 2.362-.144 3.475.036.497.081 3.676 1.602 4.08 1.87.513.343 1.014.702 1.534 1.035.87.56 1.813 1.002 2.856 1.093 2.28.199 4.147-1.433 5.95-2.588.872-.56 1.845-1.062 2.855-1.305 1.056-.256 2.159-.27 3.238-.204 2.205.135 4.195.94 5.896 2.355.764.637 1.537 1.212 2.492 1.528a5.27 5.27 0 002.943.093c1.973-.493 3.542-2.074 3.94-4.089.38-1.944-.316-3.928-1.844-5.174z" fill="#fff"/></svg>