<svg width="164" height="54" viewBox="0 0 164 54" fill="none" xmlns="http://www.w3.org/2000/svg">
<path d="M78.472 36.288C77.368 36.288 76.368 36.112 75.472 35.76C74.592 35.392 73.832 34.848 73.192 34.128C72.568 33.408 72.088 32.52 71.752 31.464C71.416 30.392 71.248 29.152 71.248 27.744C71.248 26.336 71.416 25.088 71.752 24C72.088 22.896 72.568 21.976 73.192 21.24C73.832 20.488 74.592 19.92 75.472 19.536C76.368 19.152 77.368 18.96 78.472 18.96C79.976 18.96 81.224 19.28 82.216 19.92C83.208 20.56 84 21.528 84.592 22.824L81.88 24.264C81.64 23.512 81.248 22.912 80.704 22.464C80.16 22 79.416 21.768 78.472 21.768C77.288 21.768 76.344 22.168 75.64 22.968C74.952 23.768 74.608 24.888 74.608 26.328V28.968C74.608 30.424 74.952 31.544 75.64 32.328C76.344 33.096 77.288 33.48 78.472 33.48C79.416 33.48 80.184 33.224 80.776 32.712C81.384 32.2 81.824 31.568 82.096 30.816L84.664 32.328C84.056 33.576 83.248 34.552 82.24 35.256C81.232 35.944 79.976 36.288 78.472 36.288Z" fill="black"/>
<path d="M96.3905 36C95.7185 36 95.1825 35.808 94.7825 35.424C94.3985 35.024 94.1585 34.496 94.0625 33.84H93.9185C93.7105 34.656 93.2865 35.272 92.6465 35.688C92.0065 36.088 91.2145 36.288 90.2705 36.288C88.9905 36.288 88.0065 35.952 87.3185 35.28C86.6305 34.608 86.2865 33.712 86.2865 32.592C86.2865 31.296 86.7505 30.336 87.6785 29.712C88.6065 29.072 89.9265 28.752 91.6385 28.752H93.7745V27.84C93.7745 27.136 93.5905 26.592 93.2225 26.208C92.8545 25.824 92.2625 25.632 91.4465 25.632C90.7265 25.632 90.1425 25.792 89.6945 26.112C89.2625 26.416 88.8945 26.784 88.5905 27.216L86.7665 25.584C87.2305 24.864 87.8465 24.288 88.6145 23.856C89.3825 23.408 90.3985 23.184 91.6625 23.184C93.3585 23.184 94.6465 23.568 95.5265 24.336C96.4065 25.104 96.8465 26.208 96.8465 27.648V33.552H98.0945V36H96.3905ZM91.3025 34.056C91.9905 34.056 92.5745 33.904 93.0545 33.6C93.5345 33.296 93.7745 32.848 93.7745 32.256V30.6H91.8065C90.2065 30.6 89.4065 31.112 89.4065 32.136V32.544C89.4065 33.056 89.5665 33.44 89.8865 33.696C90.2225 33.936 90.6945 34.056 91.3025 34.056Z" fill="black"/>
<path d="M100.581 36V23.472H103.653V26.064H103.773C103.853 25.728 103.973 25.408 104.133 25.104C104.309 24.784 104.533 24.504 104.805 24.264C105.077 24.024 105.397 23.832 105.765 23.688C106.149 23.544 106.589 23.472 107.085 23.472H107.757V26.376H106.797C105.757 26.376 104.973 26.528 104.445 26.832C103.917 27.136 103.653 27.632 103.653 28.32V36H100.581Z" fill="black"/>
<path d="M110.003 36V23.472H113.075V26.064H113.195C113.275 25.728 113.395 25.408 113.555 25.104C113.731 24.784 113.955 24.504 114.227 24.264C114.499 24.024 114.819 23.832 115.187 23.688C115.571 23.544 116.011 23.472 116.507 23.472H117.179V26.376H116.219C115.179 26.376 114.395 26.528 113.867 26.832C113.339 27.136 113.075 27.632 113.075 28.32V36H110.003Z" fill="black"/>
<path d="M124.275 36.288C123.379 36.288 122.571 36.136 121.851 35.832C121.147 35.528 120.539 35.088 120.027 34.512C119.531 33.936 119.147 33.248 118.875 32.448C118.603 31.632 118.467 30.72 118.467 29.712C118.467 28.704 118.603 27.8 118.875 27C119.147 26.2 119.531 25.52 120.027 24.96C120.539 24.384 121.147 23.944 121.851 23.64C122.571 23.336 123.379 23.184 124.275 23.184C125.171 23.184 125.979 23.336 126.699 23.64C127.419 23.944 128.027 24.384 128.523 24.96C129.035 25.52 129.427 26.2 129.699 27C129.971 27.8 130.107 28.704 130.107 29.712C130.107 30.72 129.971 31.632 129.699 32.448C129.427 33.248 129.035 33.936 128.523 34.512C128.027 35.088 127.419 35.528 126.699 35.832C125.979 36.136 125.171 36.288 124.275 36.288ZM124.275 33.816C125.091 33.816 125.731 33.568 126.195 33.072C126.659 32.576 126.891 31.848 126.891 30.888V28.56C126.891 27.616 126.659 26.896 126.195 26.4C125.731 25.904 125.091 25.656 124.275 25.656C123.475 25.656 122.843 25.904 122.379 26.4C121.915 26.896 121.683 27.616 121.683 28.56V30.888C121.683 31.848 121.915 32.576 122.379 33.072C122.843 33.568 123.475 33.816 124.275 33.816Z" fill="black"/>
<path d="M136.649 36C135.593 36 134.785 35.728 134.225 35.184C133.681 34.624 133.409 33.832 133.409 32.808V25.92H131.561V23.472H132.521C132.985 23.472 133.297 23.368 133.457 23.16C133.633 22.936 133.721 22.608 133.721 22.176V20.04H136.481V23.472H139.049V25.92H136.481V33.552H138.857V36H136.649Z" fill="black"/>
<path d="M141.21 36V33.456H143.418V21.792H141.21V19.248H148.818V21.792H146.586V33.456H148.818V36H141.21Z" fill="black"/>
<path d="M158.513 22.056V36H155.345V22.056H150.593V19.248H163.265V22.056H158.513Z" fill="black"/>
<path d="M52.0538 22.9863C51.359 22.4203 50.5451 21.9883 49.6631 21.8086C49.2333 21.7206 48.7928 21.6972 48.3559 21.726C47.8813 21.7565 47.4211 21.8904 46.9474 21.9182C45.2149 22.0179 43.4366 20.3885 43.1859 18.7006C43.0552 17.8221 43.3346 16.9409 43.2987 16.0561C43.262 15.1273 43.0203 14.1976 42.5538 13.3918C41.6163 11.7741 39.7154 10.7608 37.8593 10.8003C36.9764 10.8192 36.0434 11.0842 35.2555 11.4794C34.3628 11.9268 33.5668 12.5717 32.7153 13.0936C31.922 13.5796 31.1753 14.0835 30.2423 14.2236C29.4767 14.3386 28.7201 14.5084 27.9546 14.618C26.2381 14.8641 21.8982 14.9458 22.7354 12.0947C22.918 11.4731 23.3299 10.8605 23.9871 10.6988C24.7858 10.5021 25.5818 10.8012 26.3769 10.8443C27.2472 10.892 28.3593 10.9261 29.0684 10.344C29.3397 10.1212 29.7041 9.9802 30.0059 9.76552C30.407 9.47987 30.7777 9.1511 31.0974 8.77473C32.2542 7.41205 32.5792 5.4143 32.0671 3.71298C31.5379 1.95506 29.9924 0.571727 28.2268 0.142354C26.4924 -0.279833 24.6175 0.259129 23.3129 1.4664C22.174 2.52007 21.6314 4.1648 21.652 5.69006C21.6582 6.1383 21.7648 6.5569 21.7925 6.99076C21.8176 7.3887 21.7719 7.79202 21.6564 8.17379C21.4129 8.98223 20.8873 9.71432 20.2256 10.2317C19.5604 10.7518 18.7303 11.0608 17.8815 11.0204C17.475 11.0006 17.0954 10.8704 16.6951 10.8129C16.2233 10.7437 15.7487 10.7707 15.2831 10.8704C13.4261 11.2665 11.8341 12.5744 11.2118 14.3862C10.6262 16.0911 10.9414 18.0044 12.0141 19.4498C13.076 20.8798 14.9267 21.6927 16.6101 21.4969C19.1538 21.2005 19.1512 18.8075 22.6064 17.7368C24.236 17.2319 25.871 17.2571 26.8138 17.2715C27.9107 17.2885 28.8517 17.3442 30.0453 17.6972C31.1932 18.0368 32.0697 18.7231 33.0717 19.3411C33.9653 19.8908 34.7505 20.5888 35.722 21.0146C36.7114 21.4484 37.7223 21.5535 38.7887 21.5023C39.8408 21.452 41.0128 21.2975 41.6942 22.2955C42.321 23.2126 42.0864 24.3651 41.2098 25.0352C40.4371 25.6254 39.2176 25.611 38.2944 25.6317C37.1958 25.6559 36.0766 25.6272 35.012 25.3253C34.5303 25.1888 34.0799 24.9786 33.6313 24.7594C33.3206 24.6085 32.9168 24.5025 32.6419 24.3139C31.0436 23.2144 29.3549 21.805 27.3403 21.6604C25.2031 21.5068 23.4392 22.8147 21.7925 24.0022C20.8963 24.649 19.9973 25.1574 18.9148 25.4242C17.8672 25.682 16.7381 25.7215 15.6636 25.6936C13.461 25.6353 11.3855 24.8196 9.6019 23.5333C8.73607 22.909 7.88993 22.264 6.85039 21.9595C5.9192 21.6874 4.90025 21.646 3.95831 21.8895C2.01533 22.3907 0.389311 24.181 0.0651825 26.1688C-0.272377 28.2411 0.725971 30.4365 2.4845 31.5584C3.40496 32.1459 4.43465 32.3974 5.51986 32.4001C6.55492 32.4019 7.59804 32.1441 8.62594 32.3741C9.70129 32.6139 10.4901 33.4484 10.7023 34.5398C10.8859 35.4821 10.7086 36.4846 10.7247 37.4376C10.7614 39.5531 11.7159 41.6056 13.6911 42.5578C15.4774 43.4192 17.6093 43.2548 19.2398 42.132C19.426 42.0035 19.6212 41.9371 19.8146 41.8239C20.0044 41.7134 20.1415 41.5544 20.3134 41.4232C20.4978 41.2822 20.7208 41.1996 20.9124 41.0666C21.1434 40.9058 21.3744 40.746 21.6152 40.5986C22.6002 39.9986 23.6827 39.5728 24.8073 39.324C25.8432 39.0949 26.9661 39.1309 28.0226 39.1821C29.0272 39.2306 30.1787 39.3545 30.8825 40.1639C31.1475 40.4684 31.3337 40.7855 31.3311 41.1879C31.3293 41.434 31.383 41.7601 31.3257 41.999C31.2702 42.2254 30.1205 43.3132 29.9683 43.3878C29.4284 43.6536 28.9413 43.536 28.3655 43.4318C27.8811 43.3446 27.4209 43.2791 26.9294 43.2755C26.7154 43.2737 26.5461 43.2315 26.333 43.2809C26.0653 43.3428 25.7976 43.4048 25.5334 43.483C24.4259 43.8117 23.4678 44.4369 22.7658 45.3649C21.5776 46.935 21.3386 49.0828 22.1588 50.8739C23.0488 52.8169 25.0714 54.0772 27.2042 53.9963C29.3012 53.9173 31.3042 52.5025 31.991 50.4967C32.3339 49.4951 32.3097 48.4774 32.2497 47.4354C32.222 46.9494 32.2067 46.4625 32.2819 45.9802C32.3634 45.4547 32.65 44.9723 32.9633 44.5492C33.5892 43.7031 34.5374 43.1407 35.5868 43.0365C36.5753 42.9377 37.5549 43.2135 38.546 43.1003C40.6717 42.8569 42.4436 41.3406 43.0776 39.3015C43.6828 37.3568 43.0803 35.1381 41.5644 33.7727C40.1076 32.4612 37.8682 31.9717 36.0434 32.7424C35.0746 33.1511 34.259 33.8356 33.4361 34.4751C32.5103 35.1946 31.5549 35.7794 30.4303 36.1315C29.4212 36.4477 28.3145 36.6579 27.2553 36.631C26.231 36.6049 25.2335 36.569 24.2387 36.3085C23.1714 36.0291 22.2178 35.4596 21.3413 34.8012C20.5542 34.2101 19.7797 33.6622 18.9219 33.1825C17.9415 32.6337 16.884 32.3714 15.763 32.4073C14.822 32.437 13.7081 32.6974 12.8521 32.1747C12.0293 31.6716 11.7437 30.6386 12.0929 29.7556C12.5173 28.6804 13.6025 28.4379 14.6393 28.3364C15.7577 28.2277 17.0013 28.1917 18.1143 28.3723C18.6112 28.4531 21.7899 29.9739 22.1937 30.2425C22.7067 30.5847 23.2081 30.944 23.7275 31.2773C24.5978 31.8369 25.5415 32.2789 26.5837 32.3696C28.8643 32.569 30.7311 30.9368 32.5335 29.7817C33.4056 29.2229 34.3789 28.7199 35.3889 28.4765C36.4446 28.2214 37.5477 28.2061 38.6266 28.2726C40.832 28.4082 42.8224 29.2131 44.5227 30.6278C45.2874 31.2647 46.0601 31.8396 47.0155 32.1558C47.97 32.4711 48.9844 32.4927 49.9577 32.2492C51.9311 31.7561 53.4998 30.1751 53.8974 28.1603C54.2788 26.2164 53.5822 24.2322 52.0538 22.9863Z" fill="black"/>
</svg>
